<svg width="16" height="17" viewBox="0 0 16 17" fill="none" xmlns="http://www.w3.org/2000/svg">
<path fill-rule="evenodd" clip-rule="evenodd" d="M1.33334 8.50016C1.33334 4.82016 4.32001 1.8335 8.00001 1.8335C11.68 1.8335 14.6667 4.82016 14.6667 8.50016C14.6667 12.1802 11.68 15.1668 8.00001 15.1668C4.32001 15.1668 1.33334 12.1802 1.33334 8.50016ZM8.66668 9.16683H10.6667C11.0333 9.16683 11.3333 8.86683 11.3333 8.50016C11.3333 8.1335 11.0333 7.8335 10.6667 7.8335H8.66668V5.8335C8.66668 5.46683 8.36668 5.16683 8.00001 5.16683C7.63334 5.16683 7.33334 5.46683 7.33334 5.8335V7.8335H5.33334C4.96668 7.8335 4.66668 8.1335 4.66668 8.50016C4.66668 8.86683 4.96668 9.16683 5.33334 9.16683H7.33334V11.1668C7.33334 11.5335 7.63334 11.8335 8.00001 11.8335C8.36668 11.8335 8.66668 11.5335 8.66668 11.1668V9.16683Z" fill="#0078FF"/>
</svg>
